HIERARCHY
ROOT Hips
{
	OFFSET	0.00	0.00	0.00
	CHANNELS 6 Xposition Yposition Zposition Zrotation Xrotation Yrotation
	JOINT LeftUpLeg
	{
		OFFSET	 0.126116	-0.014019	-0.065224
		CHANNELS 3 Zrotation Xrotation Yrotation
		JOINT LeftLeg
		{
			OFFSET	 0.000000	 0.000000	 0.569914
			CHANNELS 3 Zrotation Xrotation Yrotation
			JOINT LeftFoot
			{
				OFFSET	 0.000000	 0.000000	 0.544423
				CHANNELS 3 Zrotation Xrotation Yrotation
				JOINT LeftToeBase
				{
					OFFSET	 0.000000	 0.000000	 0.207117
					CHANNELS 3 Zrotation Xrotation Yrotation
					End Site
					{
						OFFSET	 0.000000	 0.000000	 0.207117
					}
				}
			}
		}
	}
	JOINT RightUpLeg
	{
		OFFSET	-0.124023	-0.008373	-0.065224
		CHANNELS 3 Zrotation Xrotation Yrotation
		JOINT RightLeg
		{
			OFFSET	 0.000000	 0.000000	 0.570047
			CHANNELS 3 Zrotation Xrotation Yrotation
			JOINT RightFoot
			{
				OFFSET	 0.000000	 0.000000	 0.544354
				CHANNELS 3 Zrotation Xrotation Yrotation
				JOINT RightToeBase
				{
					OFFSET	 0.000000	 0.000000	 0.207540
					CHANNELS 3 Zrotation Xrotation Yrotation
					End Site
					{
						OFFSET	 0.000000	 0.000000	 0.207540
					}
				}
			}
		}
	}
	JOINT Spine
	{
		OFFSET	 0.000184	-0.007763	 0.117403
		CHANNELS 3 Zrotation Xrotation Yrotation
		JOINT Spine1
		{
			OFFSET	 0.000000	 0.000000	 0.137269
			CHANNELS 3 Zrotation Xrotation Yrotation
			JOINT Spine2
			{
				OFFSET	 0.000000	 0.000000	 0.156879
				CHANNELS 3 Zrotation Xrotation Yrotation
				JOINT LeftShoulder
				{
					OFFSET	 0.080501	-0.002496	 0.160144
					CHANNELS 3 Zrotation Xrotation Yrotation
					JOINT LeftArm
					{
						OFFSET	 0.000000	 0.000000	 0.164363
						CHANNELS 3 Zrotation Xrotation Yrotation
						JOINT LeftForeArm
						{
							OFFSET	 0.000000	 0.000000	 0.364576
							CHANNELS 3 Zrotation Xrotation Yrotation
							JOINT LeftHand
							{
								OFFSET	 0.000000	 0.000000	 0.360812
								CHANNELS 3 Zrotation Xrotation Yrotation
								JOINT LeftHandIndex1
								{
									OFFSET	 0.000000	 0.000000	 0.086006
									CHANNELS 3 Zrotation Xrotation Yrotation
									JOINT LeftHandIndex2
									{
										OFFSET	 0.000000	 0.000000	 0.047236
										CHANNELS 3 Zrotation Xrotation Yrotation
										JOINT LeftHandIndex3
										{
											OFFSET	-0.004284	-0.000551	 0.038166
											CHANNELS 3 Zrotation Xrotation Yrotation
											End Site
											{
												OFFSET	-0.004284	-0.000551	 0.038166
											}
										}
									}
								}
							}
						}
					}
				}
				JOINT Neck
				{
					OFFSET	 0.000000	 0.000000	 0.176489
					CHANNELS 3 Zrotation Xrotation Yrotation
					JOINT Head
					{
						OFFSET	 0.000000	-0.001747	 0.077940
						CHANNELS 3 Zrotation Xrotation Yrotation
						End Site
						{
							OFFSET	 0.000000	-0.001747	 0.077940
						}
					}
				}
				JOINT RightShoulder
				{
					OFFSET	-0.080363	 0.000306	 0.159706
					CHANNELS 3 Zrotation Xrotation Yrotation
					JOINT RightArm
					{
						OFFSET	 0.000000	 0.000000	 0.164196
						CHANNELS 3 Zrotation Xrotation Yrotation
						JOINT RightForeArm
						{
							OFFSET	 0.000000	 0.000000	 0.365611
							CHANNELS 3 Zrotation Xrotation Yrotation
							JOINT RightHand
							{
								OFFSET	 0.000000	 0.000000	 0.360648
								CHANNELS 3 Zrotation Xrotation Yrotation
								JOINT RightHandIndex1
								{
									OFFSET	 0.000000	 0.000000	 0.069977
									CHANNELS 3 Zrotation Xrotation Yrotation
									JOINT RightHandIndex2
									{
										OFFSET	 0.000000	 0.000000	 0.052305
										CHANNELS 3 Zrotation Xrotation Yrotation
										JOINT RightHandIndex3
										{
											OFFSET	 0.009002	-0.000782	 0.042196
											CHANNELS 3 Zrotation Xrotation Yrotation
											End Site
											{
												OFFSET	 0.009002	-0.000782	 0.042196
											}
										}
									}
								}
							}
						}
					}
				}
			}
		}
	}
}
MOTION
Frames:    4
Frame Time: 0.03333334
 0.011555	 0.058030	 1.196050	 5.736002	-0.807128	-3.679772	 0.528074	-13.686740	-171.256900	 1.271806	-40.406380	 0.595791	 52.217080	 81.061650	-56.433660	-2.368511	 31.762150	-0.073262	-7.638850	-31.754760	-174.845900	 12.704180	-53.405740	 10.879150	 64.876630	 83.621210	-62.636850	 2.359010	 32.994510	 0.103092	 1.421321	 8.468998	 0.565234	 2.061831	 2.165622	 3.782252	-9.594047	-2.018864	-4.381936	-94.110930	 58.981170	 175.018300	 24.890420	 43.883210	-23.019890	-1.935693	-2.096189	-21.121980	 1.846763	-4.712542	-8.056338	-4.864852	 19.378720	-2.799864	-3.869889	 21.621430	 2.190926	-4.804288	 5.592319	 0.144229	-0.038927	-5.104986	 0.231348	-11.405250	 1.833468	 1.881842	 89.714810	 61.760520	 179.839000	-18.863900	 51.714580	 7.573332	-1.933993	-3.289134	 16.041820	-5.120284	 10.876050	 0.337849	 6.276930	 23.596660	-0.550998	 2.036844	 43.447330	-7.127543	 0.789556	 23.109270	 3.437018
 0.011374	 0.053634	 1.194399	 6.094253	-0.455451	-3.711027	 0.209806	-14.078370	-171.232200	 1.432174	-40.819090	 0.705655	 53.014280	 81.199260	-57.354210	-2.367797	 31.880240	-0.075945	-8.503909	-32.765110	-174.911200	 13.300100	-53.123540	 11.326780	 99.259930	 83.179040	-97.839890	 2.359215	 32.964260	 0.102396	 1.202322	 8.254410	 0.505003	 2.071769	 1.894870	 3.906829	-9.622991	-1.869734	-4.388365	-94.204520	 58.994130	 174.817000	 24.990720	 43.504000	-22.903240	-2.116076	-2.126168	-22.069600	 2.118529	-4.914800	-8.310339	-4.860966	 19.475250	-2.805643	-3.864173	 21.694270	 2.185115	-4.802650	 5.611658	 0.143093	-0.020861	-5.121504	 0.259394	-11.385550	 1.895847	 1.841724	 89.674960	 61.827540	 179.742900	-18.603980	 51.928270	 7.161805	-2.273626	-3.399476	 16.080070	-5.226365	 11.148850	 0.159901	 6.266879	 22.906860	-0.562999	 2.113022	 42.792880	-7.194823	 0.938490	 22.438580	 3.364746
 0.011413	 0.030673	 1.188641	 6.572398	 0.486447	-4.215864	-0.108108	-14.270040	-170.787900	 1.719563	-41.613660	 0.907828	 57.123810	 81.710470	-61.697560	-2.362024	 32.782950	-0.096639	-8.226339	-36.145410	-174.288300	 14.210190	-51.108470	 11.754950	 132.475200	 75.430190	-133.390600	 2.357187	 33.259420	 0.109259	 0.841174	 7.478582	 0.783466	 2.120469	 1.825269	 4.094568	-9.579317	-1.603984	-4.343542	-94.429120	 58.973110	 174.341500	 24.403030	 41.802420	-22.643850	-3.297809	-1.943835	-25.616040	 1.873308	-5.695370	-7.498812	-4.835030	 20.034710	-2.821682	-3.835794	 22.053470	 2.156288	-4.781769	 5.857186	 0.128669	 0.010018	-5.234772	 0.331928	-11.286580	 2.082242	 1.824324	 89.494450	 62.011620	 179.305100	-17.509590	 52.665130	 5.602803	-4.121003	-3.961328	 16.086740	-5.824598	 12.053720	-1.489518	 6.215763	 20.061560	-0.668384	 2.407868	 40.101460	-7.452615	 1.565548	 19.532420	 3.076771
 0.010720	-0.005511	 1.182214	 6.893446	 0.724225	-4.588028	-0.551234	-12.770470	-170.632500	 2.023918	-41.964980	 1.117660	 57.444890	 81.973190	-62.157070	-2.342615	 35.410310	-0.158786	-6.401905	-38.482030	-173.284600	 13.903760	-46.667700	 10.774910	 135.320700	 69.349220	-137.694700	 2.338490	 35.704230	 0.167600	 0.148072	 7.383387	 1.020823	 2.106746	 1.997622	 4.121325	-9.348498	-1.508497	-4.230404	-94.533360	 58.911580	 174.129600	 22.139640	 39.866180	-22.620490	-3.750228	-1.956310	-28.523250	 1.409453	-6.539158	-7.444468	-4.839055	 20.450230	-2.968342	-3.797935	 22.527560	 2.117838	-4.736394	 6.387961	 0.097136	 0.086974	-5.371315	 0.353453	-10.970530	 2.328260	 1.604884	 89.373740	 61.993130	 179.014100	-15.961750	 53.327770	 3.181718	-5.958160	-4.473817	 15.905510	-5.867998	 12.135610	-3.487804	 6.168748	 16.908440	-0.703629	 2.798445	 36.105200	-7.786661	 2.212109	 16.401130	 2.809090
